<?xml version="1.0" standalone="no"?>
<!DOCTYPE svg PUBLIC "-//W3C//DTD SVG 20010904//EN"
 "http://www.w3.org/TR/2001/REC-SVG-20010904/DTD/svg10.dtd">
<svg version="1.0" xmlns="http://www.w3.org/2000/svg"
 width="491.000000pt" height="150.000000pt" viewBox="0 0 491.000000 150.000000"
 preserveAspectRatio="xMidYMid meet">
<metadata>
Created by potrace 1.16, written by Peter Selinger 2001-2019
</metadata>
<g transform="translate(0.000000,150.000000) scale(0.100000,-0.100000)"
fill="#000000" stroke="none">
<path d="M1413 1343 c-21 -8 -15 -20 32 -66 25 -25 45 -47 45 -51 0 -16 -65
-37 -95 -32 -45 9 -50 -5 -15 -39 l30 -29 78 42 c42 24 110 59 150 80 49 25
72 42 72 54 0 25 -31 23 -91 -8 l-51 -25 -68 40 c-38 23 -70 41 -72 40 -2 0
-9 -3 -15 -6z"/>
<path d="M1540 1029 l0 -90 47 3 c42 3 49 6 57 30 7 21 6 32 -6 45 -11 12 -14
28 -11 47 7 35 -16 56 -59 56 l-28 0 0 -91z"/>
<path d="M1800 1092 c0 -26 -2 -27 -44 -24 -36 3 -46 0 -60 -19 -25 -36 -20
-74 11 -99 19 -15 35 -20 53 -15 14 3 33 6 43 6 15 0 17 11 17 90 0 53 -4 89
-10 89 -5 0 -10 -12 -10 -28z"/>
<path d="M503 1065 c-52 -22 -54 -97 -4 -125 11 -5 40 -7 65 -4 l46 7 0 63 c0
62 0 63 -29 62 -15 -1 -32 2 -37 5 -5 3 -23 -1 -41 -8z"/>
<path d="M717 1073 c-3 -2 -19 -5 -36 -5 -31 -1 -33 -4 -33 -58 0 -84 3 -120
12 -120 6 0 10 13 10 29 0 28 1 29 30 18 59 -22 113 52 76 107 -14 22 -49 39
-59 29z"/>
<path d="M871 1071 c-7 -5 -22 -6 -32 -4 -18 5 -19 -1 -19 -86 0 -70 3 -91 14
-91 9 0 12 8 8 26 -4 25 -3 26 22 20 58 -14 108 26 98 80 -6 39 -62 73 -91 55z"/>
<path d="M1376 1048 c-24 -34 -20 -73 10 -97 15 -12 34 -21 44 -21 10 0 29 9
44 21 32 25 36 77 8 102 -28 25 -87 22 -106 -5z"/>
<path d="M563 628 l-47 -48 47 0 47 0 0 -215 0 -215 465 0 465 0 0 215 0 215
47 0 48 0 -46 45 -45 46 -467 2 -468 2 -46 -47z"/>
<path d="M2328 3 c474 -2 1250 -2 1725 0 474 1 86 2 -863 2 -949 0 -1337 -1
-862 -2z"/>
</g>
</svg>
